<svg width="28" height="34" viewBox="0 0 28 34" fill="none" xmlns="http://www.w3.org/2000/svg">
<path d="M23.1707 17.7191C23.132 13.5292 26.6894 11.4908 26.852 11.3959C24.8374 8.53203 21.7147 8.14073 20.6174 8.10953C17.9947 7.84043 15.4507 9.63963 14.1147 9.63963C12.752 9.63963 10.6947 8.13553 8.47737 8.17973C5.62403 8.22263 2.9547 9.83333 1.4907 12.3345C-1.53063 17.4344 0.722703 24.9289 3.61737 29.0512C5.06537 31.0701 6.75737 33.3243 8.97204 33.245C11.1387 33.1579 11.948 31.8982 14.5627 31.8982C17.1534 31.8982 17.9134 33.245 20.172 33.1943C22.4974 33.1579 23.9614 31.1663 25.3587 29.1292C27.032 26.8152 27.704 24.5363 27.7307 24.4193C27.676 24.4011 23.2147 22.741 23.1707 17.7191Z" fill="white"/>
<path d="M18.904 5.39773C20.0694 3.97683 20.8667 2.04373 20.6454 0.0820312C18.9587 0.154831 16.8494 1.21953 15.6347 2.60923C14.56 3.83383 13.6 5.84103 13.848 7.72863C15.7427 7.86643 17.688 6.79653 18.904 5.39773Z" fill="white"/>
</svg>
