<svg width="143" height="39" viewBox="0 0 143 39" fill="none" xmlns="http://www.w3.org/2000/svg">
<path d="M61.5741 7.55762C61.0109 7.55762 60.5757 8.01839 60.5757 8.60717L60.6013 20.9714L51.053 8.22319C50.6946 7.73681 50.4386 7.55762 50.1058 7.55762C49.5427 7.55762 49.1075 8.01839 49.1075 8.53037V23.9664C49.1075 24.5552 49.5171 25.016 50.1058 25.016C50.669 25.016 51.1042 24.5552 51.1042 23.9664V11.6022L60.7293 24.504C60.9853 24.8368 61.2925 25.016 61.5997 25.016C62.1629 25.016 62.5725 24.5552 62.5725 24.0432V8.60717C62.5725 8.01839 62.1629 7.55762 61.5741 7.55762Z" fill="#EB008B"/>
<path d="M68.23 25.016C68.7932 25.016 69.2283 24.5552 69.2283 23.9664V17.2596H75.5256C76.0376 17.2596 76.4472 16.85 76.4472 16.338C76.4472 15.8516 76.0376 15.442 75.5256 15.442H69.2283V9.63112H76.9848C77.4968 9.63112 77.9063 9.24714 77.9063 8.73516C77.9063 8.24878 77.4968 7.8392 76.9848 7.8392H68.2812C67.6668 7.8392 67.2316 8.29998 67.2316 8.88875V23.9664C67.2316 24.5552 67.6412 25.016 68.23 25.016Z" fill="#EB008B"/>
<path d="M85.7502 25.016C86.3389 25.016 86.7485 24.5552 86.7485 23.9664V9.63112H91.8939C92.4059 9.63112 92.8154 9.24714 92.8154 8.73516C92.8154 8.24878 92.4059 7.8392 91.8939 7.8392H79.6577C79.1201 7.8392 78.7105 8.24878 78.7105 8.73516C78.7105 9.24714 79.1201 9.63112 79.6577 9.63112H84.7518V23.9664C84.7518 24.5552 85.187 25.016 85.7502 25.016Z" fill="#EB008B"/>
<path d="M101.303 12.3433C99.7157 12.3433 98.3333 13.0088 97.4118 14.1096V13.188C97.4118 12.6248 96.9766 12.1641 96.439 12.1641C95.8503 12.1641 95.4407 12.6248 95.4407 13.188V24.1699C95.4407 24.7331 95.8503 25.1939 96.439 25.1939C96.9766 25.1939 97.4118 24.7587 97.4118 24.1699V17.8726C97.4118 15.7479 99.0501 14.1864 101.303 14.1864C101.866 14.1864 102.301 13.828 102.301 13.2648C102.301 12.7272 101.866 12.3433 101.303 12.3433Z" fill="#F26D22"/>
<path d="M108.945 12.1641C107.128 12.1641 105.464 12.8552 104.388 14.1096C104.132 14.3912 104.03 14.6727 104.03 14.9543C104.03 15.3639 104.44 15.7735 104.926 15.7735C105.182 15.7735 105.438 15.6455 105.694 15.3895C106.564 14.468 107.614 13.9816 108.817 13.9816C110.737 13.9816 111.838 15.1079 111.838 17.1302V18.2054H107.895C105.182 18.2054 103.416 19.5877 103.416 21.6868C103.416 23.7859 105.156 25.1939 107.767 25.1939C109.508 25.1939 110.916 24.5539 111.838 23.4531V24.1699C111.838 24.7331 112.273 25.1939 112.836 25.1939C113.374 25.1939 113.809 24.7587 113.809 24.1699V17.2326C113.809 14.0584 111.966 12.1641 108.945 12.1641ZM108.023 23.5555C106.462 23.5555 105.438 22.7876 105.438 21.61C105.438 20.4325 106.36 19.8181 108.126 19.8181H111.838V20.1253C111.838 22.0196 110.123 23.5555 108.023 23.5555Z" fill="#F26D22"/>
<path d="M123.621 25.1939C125.874 25.1939 127.64 24.1187 128.69 22.6084C128.844 22.378 128.869 22.2244 128.869 22.0708C128.869 21.5588 128.46 21.1748 127.948 21.1748C127.743 21.1748 127.512 21.226 127.256 21.5076C126.412 22.5572 125.26 23.3763 123.647 23.3763C121.061 23.3763 119.116 21.354 119.116 18.6662C119.116 16.0039 121.087 13.9816 123.647 13.9816C125.26 13.9816 126.412 14.8007 127.256 15.8503C127.512 16.1575 127.743 16.2087 127.973 16.2087C128.46 16.2087 128.869 15.7991 128.869 15.3127C128.869 15.1591 128.844 15.0055 128.69 14.7751C127.666 13.2392 125.874 12.1641 123.621 12.1641C119.986 12.1641 117.094 15.0311 117.094 18.6662C117.094 22.3012 119.986 25.1939 123.621 25.1939Z" fill="#F26D22"/>
<path d="M137.317 12.1641C133.759 12.1641 130.943 15.0311 130.943 18.6918C130.943 22.4036 133.759 25.1939 137.548 25.1939C139.16 25.1939 140.645 24.6819 141.874 23.6579C142.232 23.3251 142.36 23.0948 142.36 22.762C142.36 22.25 141.976 21.8916 141.49 21.8916C141.259 21.8916 141.029 21.994 140.824 22.1732C139.928 22.9412 138.802 23.3763 137.573 23.3763C135.064 23.3763 133.247 21.738 132.991 19.2805H141.797C142.565 19.2805 143 18.8709 143 18.0518V17.9238C143 14.5704 140.619 12.1641 137.317 12.1641ZM137.266 13.956C139.442 13.956 140.927 15.4407 140.978 17.5398H133.068C133.503 15.4151 135.141 13.956 137.266 13.956Z" fill="#F26D22"/>
<path fill-rule="evenodd" clip-rule="evenodd" d="M35.9945 38.3339C35.9945 38.3339 41.2993 31.8963 41.2993 28.9688C41.2993 26.0412 38.9243 23.668 35.9945 23.668C33.0648 23.668 30.6898 26.0412 30.6898 28.9688C30.6898 31.8963 35.9945 38.3339 35.9945 38.3339ZM35.9945 31.9761C37.8041 31.9761 39.271 30.5092 39.271 28.6996C39.271 26.8901 37.8041 25.4232 35.9945 25.4232C34.185 25.4232 32.7181 26.8901 32.7181 28.6996C32.7181 30.5092 34.185 31.9761 35.9945 31.9761Z" fill="url(#paint0_linear_2_43)"/>
<path fill-rule="evenodd" clip-rule="evenodd" d="M4.29112 22.863C4.29112 26.8915 7.55481 30.1564 11.5797 30.1564C15.6045 30.1564 18.8682 26.8915 18.8682 22.863L18.8682 9.18439C18.8682 4.17508 22.9268 0.113347 27.9345 0.113347C32.9421 0.113347 37.0007 4.17509 37.0007 9.18439L37.0007 18.1786C37.0007 18.6695 36.6028 19.0674 36.1119 19.0674C35.621 19.0674 35.223 18.6695 35.223 18.1786L35.223 9.18439C35.223 5.15589 31.9593 1.89104 27.9345 1.89104C23.9096 1.89104 20.6459 5.15589 20.6459 9.18439L20.6459 22.863C20.6459 27.8723 16.5873 31.9341 11.5797 31.9341C6.57203 31.9341 2.51343 27.8723 2.51343 22.863L2.51343 9.18439C2.51343 8.6935 2.91138 8.29555 3.40227 8.29555C3.89317 8.29555 4.29112 8.6935 4.29112 9.18439L4.29112 22.863Z" fill="url(#paint1_linear_2_43)"/>
<path d="M36.1118 20.2013C36.6518 20.2013 37.0896 20.639 37.0896 21.179C37.0896 21.719 36.6518 22.1567 36.1118 22.1567C35.5718 22.1567 35.1341 21.719 35.1341 21.179C35.1341 20.639 35.5718 20.2013 36.1118 20.2013Z" fill="url(#paint2_linear_2_43)"/>
<path fill-rule="evenodd" clip-rule="evenodd" d="M0.296849 5.03943C-0.0989498 5.43523 -0.0989498 6.07694 0.29685 6.47274C0.692649 6.86854 1.33437 6.86854 1.73017 6.47274L3.36756 4.83534L5.0395 6.50728C5.4353 6.90308 6.07702 6.90308 6.47282 6.50728C6.86862 6.11148 6.86862 5.46977 6.47282 5.07397L4.80088 3.40203L6.47274 1.73017C6.86854 1.33437 6.86854 0.692648 6.47274 0.296849C6.07694 -0.0989502 5.43523 -0.0989495 5.03943 0.29685L3.36756 1.96871L1.73024 0.331388C1.33444 -0.0644113 0.692723 -0.0644114 0.296924 0.331388C-0.0988753 0.727187 -0.0988749 1.36891 0.296924 1.7647L1.93425 3.40203L0.296849 5.03943Z" fill="url(#paint3_linear_2_43)"/>
<defs>
<linearGradient id="paint0_linear_2_43" x1="35.9945" y1="23.668" x2="35.9945" y2="38.3339" gradientUnits="userSpaceOnUse">
<stop stop-color="#EB008B"/>
<stop offset="1" stop-color="#F26D22"/>
</linearGradient>
<linearGradient id="paint1_linear_2_43" x1="2.51343" y1="16.0237" x2="37.0007" y2="16.0237" gradientUnits="userSpaceOnUse">
<stop stop-color="#EB008B"/>
<stop offset="1" stop-color="#F26D22"/>
</linearGradient>
<linearGradient id="paint2_linear_2_43" x1="35.1341" y1="21.179" x2="37.0896" y2="21.179" gradientUnits="userSpaceOnUse">
<stop stop-color="#EB008B"/>
<stop offset="1" stop-color="#F26D22"/>
</linearGradient>
<linearGradient id="paint3_linear_2_43" x1="3.38483" y1="0" x2="3.38483" y2="6.80415" gradientUnits="userSpaceOnUse">
<stop stop-color="#EB008B"/>
<stop offset="1" stop-color="#F26D22"/>
</linearGradient>
</defs>
</svg>
